<svg width="124" height="11" viewBox="0 0 124 11" fill="none" xmlns="http://www.w3.org/2000/svg">
<path d="M5.89941 10.6982C5.1429 10.6982 4.44336 10.5866 3.80078 10.3633C3.16276 10.14 2.61361 9.80729 2.15332 9.36523C1.69303 8.92318 1.33529 8.37174 1.08008 7.71094C0.829427 7.05013 0.704102 6.28678 0.704102 5.4209C0.704102 4.61426 0.82487 3.88281 1.06641 3.22656C1.30794 2.57031 1.65885 2.00749 2.11914 1.53809C2.5612 1.08691 3.10807 0.738281 3.75977 0.492188C4.41602 0.246094 5.13151 0.123047 5.90625 0.123047C6.33464 0.123047 6.71973 0.148112 7.06152 0.198242C7.40788 0.243815 7.72689 0.305339 8.01855 0.382812C8.32389 0.469401 8.59961 0.567383 8.8457 0.676758C9.09635 0.781576 9.3151 0.879557 9.50195 0.970703V3.43848H9.20117C9.07357 3.3291 8.91178 3.19922 8.71582 3.04883C8.52441 2.89844 8.30566 2.75033 8.05957 2.60449C7.80892 2.45866 7.53776 2.33561 7.24609 2.23535C6.95443 2.13509 6.64225 2.08496 6.30957 2.08496C5.94043 2.08496 5.58952 2.14421 5.25684 2.2627C4.92415 2.37663 4.61654 2.56803 4.33398 2.83691C4.0651 3.09668 3.84635 3.44076 3.67773 3.86914C3.51367 4.29753 3.43164 4.81706 3.43164 5.42773C3.43164 6.06576 3.52051 6.59896 3.69824 7.02734C3.88053 7.45573 4.1084 7.79297 4.38184 8.03906C4.65983 8.28971 4.96973 8.46973 5.31152 8.5791C5.65332 8.68392 5.99056 8.73633 6.32324 8.73633C6.64225 8.73633 6.95671 8.68848 7.2666 8.59277C7.58105 8.49707 7.87044 8.36719 8.13477 8.20312C8.35807 8.07096 8.56543 7.92969 8.75684 7.7793C8.94824 7.62891 9.10547 7.49902 9.22852 7.38965H9.50195V9.82324C9.24674 9.93717 9.00293 10.0443 8.77051 10.1445C8.53809 10.2448 8.29427 10.3314 8.03906 10.4043C7.70638 10.5 7.39421 10.5729 7.10254 10.623C6.81087 10.6732 6.40983 10.6982 5.89941 10.6982ZM22.1387 7.38281C22.1387 7.875 22.0384 8.31478 21.8379 8.70215C21.6419 9.08952 21.3708 9.41081 21.0244 9.66602C20.6234 9.9668 20.1813 10.181 19.6982 10.3086C19.2197 10.4362 18.6113 10.5 17.873 10.5H13.4297V0.321289H17.3809C18.2012 0.321289 18.8005 0.348633 19.1787 0.40332C19.5615 0.458008 19.9398 0.578776 20.3135 0.765625C20.7008 0.961589 20.988 1.22591 21.1748 1.55859C21.3662 1.88672 21.4619 2.2627 21.4619 2.68652C21.4619 3.17871 21.332 3.61393 21.0723 3.99219C20.8125 4.36589 20.4456 4.65755 19.9717 4.86719V4.92188C20.637 5.05404 21.1634 5.32747 21.5508 5.74219C21.9427 6.1569 22.1387 6.70378 22.1387 7.38281ZM18.7754 3.19922C18.7754 3.0306 18.7321 2.86198 18.6455 2.69336C18.5635 2.52474 18.4154 2.39941 18.2012 2.31738C18.0098 2.24447 17.7705 2.20573 17.4834 2.20117C17.2008 2.19206 16.8021 2.1875 16.2871 2.1875H16.041V4.34082H16.4512C16.8659 4.34082 17.2191 4.33398 17.5107 4.32031C17.8024 4.30664 18.0326 4.26107 18.2012 4.18359C18.4382 4.07878 18.5931 3.94434 18.666 3.78027C18.7389 3.61165 18.7754 3.41797 18.7754 3.19922ZM19.418 7.3418C19.418 7.01823 19.3542 6.76986 19.2266 6.59668C19.1035 6.41895 18.8916 6.28678 18.5908 6.2002C18.3857 6.14095 18.1032 6.10905 17.7432 6.10449C17.3831 6.09993 17.0072 6.09766 16.6152 6.09766H16.041V8.63379H16.2324C16.9707 8.63379 17.4993 8.63151 17.8184 8.62695C18.1374 8.6224 18.4313 8.56315 18.7002 8.44922C18.9736 8.33529 19.1605 8.1849 19.2607 7.99805C19.3656 7.80664 19.418 7.58789 19.418 7.3418ZM31.5967 10.5H25.6357V8.69531H27.3037V2.12598H25.6357V0.321289H31.5967V2.12598H29.9287V8.69531H31.5967V10.5ZM43.7002 2.29004H40.5215V10.5H37.8965V2.29004H34.7178V0.321289H43.7002V2.29004ZM58.665 10.6982C57.9085 10.6982 57.209 10.5866 56.5664 10.3633C55.9284 10.14 55.3792 9.80729 54.9189 9.36523C54.4587 8.92318 54.1009 8.37174 53.8457 7.71094C53.5951 7.05013 53.4697 6.28678 53.4697 5.4209C53.4697 4.61426 53.5905 3.88281 53.832 3.22656C54.0736 2.57031 54.4245 2.00749 54.8848 1.53809C55.3268 1.08691 55.8737 0.738281 56.5254 0.492188C57.1816 0.246094 57.8971 0.123047 58.6719 0.123047C59.1003 0.123047 59.4854 0.148112 59.8271 0.198242C60.1735 0.243815 60.4925 0.305339 60.7842 0.382812C61.0895 0.469401 61.3652 0.567383 61.6113 0.676758C61.862 0.781576 62.0807 0.879557 62.2676 0.970703V3.43848H61.9668C61.8392 3.3291 61.6774 3.19922 61.4814 3.04883C61.29 2.89844 61.0713 2.75033 60.8252 2.60449C60.5745 2.45866 60.3034 2.33561 60.0117 2.23535C59.7201 2.13509 59.4079 2.08496 59.0752 2.08496C58.7061 2.08496 58.3551 2.14421 58.0225 2.2627C57.6898 2.37663 57.3822 2.56803 57.0996 2.83691C56.8307 3.09668 56.612 3.44076 56.4434 3.86914C56.2793 4.29753 56.1973 4.81706 56.1973 5.42773C56.1973 6.06576 56.2861 6.59896 56.4639 7.02734C56.6462 7.45573 56.874 7.79297 57.1475 8.03906C57.4255 8.28971 57.7354 8.46973 58.0771 8.5791C58.4189 8.68392 58.7562 8.73633 59.0889 8.73633C59.4079 8.73633 59.7223 8.68848 60.0322 8.59277C60.3467 8.49707 60.6361 8.36719 60.9004 8.20312C61.1237 8.07096 61.3311 7.92969 61.5225 7.7793C61.7139 7.62891 61.8711 7.49902 61.9941 7.38965H62.2676V9.82324C62.0124 9.93717 61.7686 10.0443 61.5361 10.1445C61.3037 10.2448 61.0599 10.3314 60.8047 10.4043C60.472 10.5 60.1598 10.5729 59.8682 10.623C59.5765 10.6732 59.1755 10.6982 58.665 10.6982ZM74.9043 7.38281C74.9043 7.875 74.804 8.31478 74.6035 8.70215C74.4076 9.08952 74.1364 9.41081 73.79 9.66602C73.389 9.9668 72.9469 10.181 72.4639 10.3086C71.9854 10.4362 71.377 10.5 70.6387 10.5H66.1953V0.321289H70.1465C70.9668 0.321289 71.5661 0.348633 71.9443 0.40332C72.3271 0.458008 72.7054 0.578776 73.0791 0.765625C73.4665 0.961589 73.7536 1.22591 73.9404 1.55859C74.1318 1.88672 74.2275 2.2627 74.2275 2.68652C74.2275 3.17871 74.0977 3.61393 73.8379 3.99219C73.5781 4.36589 73.2113 4.65755 72.7373 4.86719V4.92188C73.4027 5.05404 73.929 5.32747 74.3164 5.74219C74.7083 6.1569 74.9043 6.70378 74.9043 7.38281ZM71.541 3.19922C71.541 3.0306 71.4977 2.86198 71.4111 2.69336C71.3291 2.52474 71.181 2.39941 70.9668 2.31738C70.7754 2.24447 70.5361 2.20573 70.249 2.20117C69.9665 2.19206 69.5677 2.1875 69.0527 2.1875H68.8066V4.34082H69.2168C69.6315 4.34082 69.9847 4.33398 70.2764 4.32031C70.568 4.30664 70.7982 4.26107 70.9668 4.18359C71.2038 4.07878 71.3587 3.94434 71.4316 3.78027C71.5046 3.61165 71.541 3.41797 71.541 3.19922ZM72.1836 7.3418C72.1836 7.01823 72.1198 6.76986 71.9922 6.59668C71.8691 6.41895 71.6572 6.28678 71.3564 6.2002C71.1514 6.14095 70.8688 6.10905 70.5088 6.10449C70.1488 6.09993 69.7728 6.09766 69.3809 6.09766H68.8066V8.63379H68.998C69.7363 8.63379 70.265 8.63151 70.584 8.62695C70.903 8.6224 71.1969 8.56315 71.4658 8.44922C71.7393 8.33529 71.9261 8.1849 72.0264 7.99805C72.1312 7.80664 72.1836 7.58789 72.1836 7.3418ZM84.3623 10.5H78.4014V8.69531H80.0693V2.12598H78.4014V0.321289H84.3623V2.12598H82.6943V8.69531H84.3623V10.5ZM96.4658 2.29004H93.2871V10.5H90.6621V2.29004H87.4834V0.321289H96.4658V2.29004ZM109.28 10.5H106.655V2.29004H103.743C103.72 2.73665 103.702 3.08757 103.688 3.34277C103.675 3.59798 103.654 3.93522 103.627 4.35449C103.568 5.27507 103.477 6.0498 103.354 6.67871C103.235 7.30306 103.101 7.81803 102.95 8.22363C102.795 8.63379 102.631 8.96875 102.458 9.22852C102.285 9.48828 102.112 9.7002 101.938 9.86426C101.715 10.0785 101.437 10.2493 101.104 10.377C100.772 10.5046 100.419 10.5684 100.045 10.5684C99.8171 10.5684 99.5801 10.5592 99.334 10.541C99.0924 10.5228 98.9375 10.5091 98.8691 10.5V8.22363H98.9648C99.0059 8.22819 99.0514 8.23275 99.1016 8.2373C99.1562 8.24186 99.2178 8.24414 99.2861 8.24414C99.5413 8.24414 99.7305 8.22819 99.8535 8.19629C99.9766 8.16439 100.086 8.10742 100.182 8.02539C100.528 7.72005 100.765 7.23698 100.893 6.57617C101.025 5.91081 101.123 4.98112 101.187 3.78711C101.214 3.31315 101.234 2.79818 101.248 2.24219C101.266 1.68164 101.282 1.04134 101.296 0.321289H109.28V10.5ZM123.291 10.5H120.577L119.873 8.44238H116.1L115.396 10.5H112.75L116.51 0.321289H119.531L123.291 10.5ZM119.237 6.57617L117.986 2.92578L116.735 6.57617H119.237Z" fill="#2DABE3"/>
</svg>
