<svg width="167" height="16" viewBox="0 0 167 16" fill="none" xmlns="http://www.w3.org/2000/svg">
<path d="M7.42773 15.2832C6.34701 15.2832 5.34766 15.1237 4.42969 14.8047C3.51823 14.4857 2.73372 14.0104 2.07617 13.3789C1.41862 12.7474 0.907552 11.9596 0.542969 11.0156C0.184896 10.0716 0.00585938 8.98112 0.00585938 7.74414C0.00585938 6.5918 0.178385 5.54688 0.523438 4.60938C0.86849 3.67188 1.36979 2.86784 2.02734 2.19727C2.65885 1.55273 3.4401 1.05469 4.37109 0.703125C5.30859 0.351562 6.33073 0.175781 7.4375 0.175781C8.04948 0.175781 8.59961 0.211589 9.08789 0.283203C9.58268 0.348307 10.0384 0.436198 10.4551 0.546875C10.8913 0.670573 11.2852 0.810547 11.6367 0.966797C11.9948 1.11654 12.3073 1.25651 12.5742 1.38672V4.91211H12.1445C11.9622 4.75586 11.7311 4.57031 11.4512 4.35547C11.1777 4.14062 10.8652 3.92904 10.5137 3.7207C10.1556 3.51237 9.76823 3.33659 9.35156 3.19336C8.9349 3.05013 8.48893 2.97852 8.01367 2.97852C7.48633 2.97852 6.98503 3.06315 6.50977 3.23242C6.03451 3.39518 5.59505 3.66862 5.19141 4.05273C4.80729 4.42383 4.49479 4.91536 4.25391 5.52734C4.01953 6.13932 3.90234 6.88151 3.90234 7.75391C3.90234 8.66536 4.0293 9.42708 4.2832 10.0391C4.54362 10.651 4.86914 11.1328 5.25977 11.4844C5.6569 11.8424 6.09961 12.0996 6.58789 12.2559C7.07617 12.4056 7.55794 12.4805 8.0332 12.4805C8.48893 12.4805 8.93815 12.4121 9.38086 12.2754C9.83008 12.1387 10.2435 11.9531 10.6211 11.7188C10.9401 11.5299 11.2363 11.3281 11.5098 11.1133C11.7832 10.8984 12.0078 10.7129 12.1836 10.5566H12.5742V14.0332C12.2096 14.196 11.8613 14.349 11.5293 14.4922C11.1973 14.6354 10.849 14.7591 10.4844 14.8633C10.0091 15 9.56315 15.1042 9.14648 15.1758C8.72982 15.2474 8.1569 15.2832 7.42773 15.2832ZM29.7695 10.5469C29.7695 11.25 29.6263 11.8783 29.3398 12.4316C29.0599 12.985 28.6725 13.444 28.1777 13.8086C27.6048 14.2383 26.9733 14.5443 26.2832 14.7266C25.5996 14.9089 24.7305 15 23.6758 15H17.3281V0.458984H22.9727C24.1445 0.458984 25.0007 0.498047 25.541 0.576172C26.0879 0.654297 26.6283 0.826823 27.1621 1.09375C27.7155 1.3737 28.1257 1.7513 28.3926 2.22656C28.666 2.69531 28.8027 3.23242 28.8027 3.83789C28.8027 4.54102 28.6172 5.16276 28.2461 5.70312C27.875 6.23698 27.3509 6.65365 26.6738 6.95312V7.03125C27.6243 7.22005 28.3763 7.61068 28.9297 8.20312C29.4896 8.79557 29.7695 9.57682 29.7695 10.5469ZM24.9648 4.57031C24.9648 4.32943 24.903 4.08854 24.7793 3.84766C24.6621 3.60677 24.4505 3.42773 24.1445 3.31055C23.8711 3.20638 23.5293 3.15104 23.1191 3.14453C22.7155 3.13151 22.1458 3.125 21.4102 3.125H21.0586V6.20117H21.6445C22.237 6.20117 22.7415 6.19141 23.1582 6.17188C23.5749 6.15234 23.9036 6.08724 24.1445 5.97656C24.4831 5.82682 24.7044 5.63477 24.8086 5.40039C24.9128 5.15951 24.9648 4.88281 24.9648 4.57031ZM25.8828 10.4883C25.8828 10.026 25.7917 9.67122 25.6094 9.42383C25.4336 9.16992 25.1309 8.98112 24.7012 8.85742C24.4082 8.77279 24.0046 8.72721 23.4902 8.7207C22.9759 8.71419 22.4388 8.71094 21.8789 8.71094H21.0586V12.334H21.332C22.3867 12.334 23.1419 12.3307 23.5977 12.3242C24.0534 12.3177 24.4733 12.2331 24.8574 12.0703C25.248 11.9076 25.515 11.6927 25.6582 11.4258C25.8079 11.1523 25.8828 10.8398 25.8828 10.4883ZM42.4238 15H33.9082V12.4219H36.291V3.03711H33.9082V0.458984H42.4238V3.03711H40.041V12.4219H42.4238V15ZM58.8574 3.27148H54.3164V15H50.5664V3.27148H46.0254V0.458984H58.8574V3.27148ZM78.5215 15.2832C77.4408 15.2832 76.4414 15.1237 75.5234 14.8047C74.612 14.4857 73.8275 14.0104 73.1699 13.3789C72.5124 12.7474 72.0013 11.9596 71.6367 11.0156C71.2786 10.0716 71.0996 8.98112 71.0996 7.74414C71.0996 6.5918 71.2721 5.54688 71.6172 4.60938C71.9622 3.67188 72.4635 2.86784 73.1211 2.19727C73.7526 1.55273 74.5339 1.05469 75.4648 0.703125C76.4023 0.351562 77.4245 0.175781 78.5312 0.175781C79.1432 0.175781 79.6934 0.211589 80.1816 0.283203C80.6764 0.348307 81.1322 0.436198 81.5488 0.546875C81.985 0.670573 82.3789 0.810547 82.7305 0.966797C83.0885 1.11654 83.401 1.25651 83.668 1.38672V4.91211H83.2383C83.056 4.75586 82.8249 4.57031 82.5449 4.35547C82.2715 4.14062 81.959 3.92904 81.6074 3.7207C81.2493 3.51237 80.862 3.33659 80.4453 3.19336C80.0286 3.05013 79.5827 2.97852 79.1074 2.97852C78.5801 2.97852 78.0788 3.06315 77.6035 3.23242C77.1283 3.39518 76.6888 3.66862 76.2852 4.05273C75.901 4.42383 75.5885 4.91536 75.3477 5.52734C75.1133 6.13932 74.9961 6.88151 74.9961 7.75391C74.9961 8.66536 75.123 9.42708 75.377 10.0391C75.6374 10.651 75.9629 11.1328 76.3535 11.4844C76.7507 11.8424 77.1934 12.0996 77.6816 12.2559C78.1699 12.4056 78.6517 12.4805 79.127 12.4805C79.5827 12.4805 80.0319 12.4121 80.4746 12.2754C80.9238 12.1387 81.3372 11.9531 81.7148 11.7188C82.0339 11.5299 82.3301 11.3281 82.6035 11.1133C82.877 10.8984 83.1016 10.7129 83.2773 10.5566H83.668V14.0332C83.3034 14.196 82.9551 14.349 82.623 14.4922C82.291 14.6354 81.9427 14.7591 81.5781 14.8633C81.1029 15 80.6569 15.1042 80.2402 15.1758C79.8236 15.2474 79.2507 15.2832 78.5215 15.2832ZM100.863 10.5469C100.863 11.25 100.72 11.8783 100.434 12.4316C100.154 12.985 99.7663 13.444 99.2715 13.8086C98.6986 14.2383 98.0671 14.5443 97.377 14.7266C96.6934 14.9089 95.8242 15 94.7695 15H88.4219V0.458984H94.0664C95.2383 0.458984 96.0944 0.498047 96.6348 0.576172C97.1816 0.654297 97.722 0.826823 98.2559 1.09375C98.8092 1.3737 99.2194 1.7513 99.4863 2.22656C99.7598 2.69531 99.8965 3.23242 99.8965 3.83789C99.8965 4.54102 99.7109 5.16276 99.3398 5.70312C98.9688 6.23698 98.4447 6.65365 97.7676 6.95312V7.03125C98.7181 7.22005 99.4701 7.61068 100.023 8.20312C100.583 8.79557 100.863 9.57682 100.863 10.5469ZM96.0586 4.57031C96.0586 4.32943 95.9967 4.08854 95.873 3.84766C95.7559 3.60677 95.5443 3.42773 95.2383 3.31055C94.9648 3.20638 94.623 3.15104 94.2129 3.14453C93.8092 3.13151 93.2396 3.125 92.5039 3.125H92.1523V6.20117H92.7383C93.3307 6.20117 93.8353 6.19141 94.252 6.17188C94.6686 6.15234 94.9974 6.08724 95.2383 5.97656C95.5768 5.82682 95.7982 5.63477 95.9023 5.40039C96.0065 5.15951 96.0586 4.88281 96.0586 4.57031ZM96.9766 10.4883C96.9766 10.026 96.8854 9.67122 96.7031 9.42383C96.5273 9.16992 96.2246 8.98112 95.7949 8.85742C95.502 8.77279 95.0983 8.72721 94.584 8.7207C94.0697 8.71419 93.5326 8.71094 92.9727 8.71094H92.1523V12.334H92.4258C93.4805 12.334 94.2357 12.3307 94.6914 12.3242C95.1471 12.3177 95.5671 12.2331 95.9512 12.0703C96.3418 11.9076 96.6087 11.6927 96.752 11.4258C96.9017 11.1523 96.9766 10.8398 96.9766 10.4883ZM113.518 15H105.002V12.4219H107.385V3.03711H105.002V0.458984H113.518V3.03711H111.135V12.4219H113.518V15ZM129.951 3.27148H125.41V15H121.66V3.27148H117.119V0.458984H129.951V3.27148ZM147.4 15H143.65V3.27148H139.49C139.458 3.90951 139.432 4.41081 139.412 4.77539C139.393 5.13997 139.363 5.62174 139.324 6.2207C139.24 7.53581 139.109 8.64258 138.934 9.54102C138.764 10.4329 138.572 11.1686 138.357 11.748C138.136 12.334 137.902 12.8125 137.654 13.1836C137.407 13.5547 137.16 13.8574 136.912 14.0918C136.593 14.3978 136.196 14.6419 135.721 14.8242C135.245 15.0065 134.741 15.0977 134.207 15.0977C133.882 15.0977 133.543 15.0846 133.191 15.0586C132.846 15.0326 132.625 15.013 132.527 15V11.748H132.664C132.723 11.7546 132.788 11.7611 132.859 11.7676C132.938 11.7741 133.025 11.7773 133.123 11.7773C133.488 11.7773 133.758 11.7546 133.934 11.709C134.109 11.6634 134.266 11.582 134.402 11.4648C134.897 11.0286 135.236 10.3385 135.418 9.39453C135.607 8.44401 135.747 7.11589 135.838 5.41016C135.877 4.73307 135.906 3.9974 135.926 3.20312C135.952 2.40234 135.975 1.48763 135.994 0.458984H147.4V15ZM166.559 15H162.682L161.676 12.0605H156.285L155.279 15H151.5L156.871 0.458984H161.188L166.559 15ZM160.768 9.39453L158.98 4.17969L157.193 9.39453H160.768Z" fill="#2DABE3"/>
</svg>
