<svg width="302" height="221" viewBox="0 0 302 221" fill="none" xmlns="http://www.w3.org/2000/svg">
<path d="M1 218.335H80.2135H301L266.449 122.49L231.899 26.6443H46.5056L1 218.335Z" fill="#FFE34E" stroke="#0E0E0F" stroke-linejoin="round"/>
<path d="M149.445 100.874L130.501 221H301L199.648 27.6729L149.445 100.874Z" fill="white"/>
<path d="M111.066 0.582702C110.838 0.431766 110.53 0.492994 110.377 0.720002L92.0303 27.863C91.9551 27.9741 91.9278 28.1108 91.9545 28.2423C91.9811 28.3738 92.0595 28.4891 92.172 28.5622L104.269 36.4273L69.7681 87.3576H68.4952C56.1402 87.3576 46.0234 97.3474 46.0234 109.572L46.0234 109.573C46.0373 114.646 47.8069 119.561 51.0371 123.5C54.2246 127.388 58.6448 130.096 63.5792 131.19L107.323 195.93H68.4952C68.2191 195.93 67.9952 196.153 67.9952 196.43V218.144C67.9952 218.42 68.2191 218.644 68.4952 218.644H178.354C178.63 218.644 178.854 218.42 178.854 218.144V196.43C178.854 196.153 178.63 195.93 178.354 195.93H134.677L85.9284 123.502C89.1653 119.568 90.9463 114.654 90.9671 109.574V109.572C90.9671 106.334 90.2251 103.099 88.8451 100.17L122.716 50.3763C121.266 68.292 131.946 87.4401 150.069 99.1349C150.297 99.2823 150.602 99.2203 150.754 98.9953L199.532 27.012C199.607 26.9014 199.634 26.7654 199.608 26.6344C199.582 26.5033 199.505 26.3881 199.393 26.3144C180.811 14.0352 157.907 11.7677 141.574 20.719L111.066 0.582702ZM193.246 54.8722C193.136 54.7976 193.001 54.7698 192.87 54.7951C192.74 54.8205 192.625 54.8968 192.551 55.0072L174.314 82.1501C174.239 82.2611 174.212 82.3973 174.239 82.5283C174.265 82.6593 174.343 82.7743 174.455 82.8474C182.15 87.8801 192.785 85.8707 197.994 78.1486C203.211 70.4146 200.821 60.0117 193.246 54.8722ZM206.346 92.3877C206.252 92.4815 206.198 92.6093 206.198 92.7427C206.198 92.8762 206.251 93.0041 206.346 93.0981L229.636 116.224C229.831 116.418 230.147 116.417 230.342 116.222L238.032 108.514C238.126 108.42 238.179 108.292 238.178 108.159C238.178 108.026 238.124 107.898 238.03 107.805L214.74 84.7877C214.545 84.5952 214.231 84.5952 214.037 84.7877L206.346 92.3877ZM244.27 55.786C244.546 55.786 244.77 55.5621 244.77 55.286V44.4288C244.77 44.1527 244.546 43.9288 244.27 43.9288H211.312C211.036 43.9288 210.812 44.1527 210.812 44.4288V55.286C210.812 55.5621 211.036 55.786 211.312 55.786H244.27ZM166.868 131.286C166.868 131.563 167.092 131.786 167.368 131.786H178.354C178.63 131.786 178.854 131.563 178.854 131.286V98.7148C178.854 98.4387 178.63 98.2148 178.354 98.2148H167.368C167.092 98.2148 166.868 98.4387 166.868 98.7148V131.286Z" fill="white" stroke="#0E0E0F" stroke-linejoin="round"/>
</svg>
