<svg width="301" height="222" viewBox="0 0 301 222" fill="none" xmlns="http://www.w3.org/2000/svg">
<path d="M1 221H79.9636H300.054L265.612 124.162L231.17 27.3247H46.3621L1 221Z" fill="#B3261E" stroke="#0E0E0F" stroke-linejoin="round"/>
<path d="M149.58 100.658L130.652 221H300.999L199.738 27.3247L149.58 100.658Z" fill="white"/>
<path d="M110.831 0.583363C110.602 0.431361 110.293 0.492847 110.139 0.721003L91.8326 27.9468C91.758 28.0578 91.7309 28.194 91.7575 28.3251C91.7841 28.4562 91.862 28.5711 91.974 28.6443L104.046 36.5346L69.6188 87.6225H68.3501C56.0187 87.6225 45.9258 97.6445 45.9258 109.903L45.9258 109.904C45.9396 114.992 47.705 119.92 50.9281 123.872C54.1084 127.771 58.5189 130.488 63.4431 131.585L107.094 196.526H68.3501C68.0739 196.526 67.8501 196.749 67.8501 197.026V218.806C67.8501 219.082 68.0739 219.306 68.3501 219.306H177.972C178.248 219.306 178.472 219.082 178.472 218.806V197.026C178.472 196.749 178.248 196.526 177.972 196.526H134.39L85.7457 123.875C88.9764 119.929 90.7536 115 90.7744 109.905V109.903C90.7744 106.655 90.0338 103.41 88.6564 100.472L122.453 50.5293C121.007 68.497 131.662 87.7019 149.746 99.4323C149.975 99.5807 150.28 99.5184 150.433 99.2923L199.105 27.0895C199.179 26.9791 199.206 26.8435 199.18 26.7128C199.155 26.5822 199.078 26.4673 198.967 26.3936C180.425 14.0771 157.57 11.8019 141.271 20.7801L110.831 0.583363ZM192.833 55.0385C192.723 54.9633 192.587 54.9353 192.456 54.9607C192.325 54.9861 192.21 55.0628 192.135 55.1737L173.938 82.3995C173.864 82.5103 173.837 82.6461 173.864 82.7767C173.89 82.9073 173.968 83.0219 174.079 83.0952C181.759 88.1443 192.373 86.1274 197.57 78.382C202.775 70.6264 200.391 60.1937 192.833 55.0385ZM229.14 116.573C229.234 116.667 229.362 116.72 229.495 116.72C229.628 116.719 229.755 116.666 229.848 116.572L237.522 108.84C237.716 108.644 237.715 108.327 237.519 108.133L214.28 85.0452C214.085 84.8515 213.77 84.8515 213.575 85.0452L205.901 92.6684C205.807 92.7621 205.754 92.8896 205.754 93.0226C205.754 93.1555 205.807 93.2831 205.901 93.377L229.14 116.573ZM243.744 55.9516C244.021 55.9516 244.244 55.7277 244.244 55.4516V44.5613C244.244 44.2851 244.021 44.0613 243.744 44.0613H210.858C210.582 44.0613 210.358 44.2851 210.358 44.5613V55.4516C210.358 55.7277 210.582 55.9516 210.858 55.9516H243.744ZM166.509 131.684C166.509 131.96 166.733 132.184 167.009 132.184H177.972C178.248 132.184 178.472 131.96 178.472 131.684V99.0128C178.472 98.7367 178.248 98.5128 177.972 98.5128H167.009C166.733 98.5128 166.509 98.7367 166.509 99.0128V131.684Z" fill="white" stroke="#0E0E0F" stroke-linejoin="round"/>
</svg>
