<svg width="156" height="208" viewBox="0 0 156 208" fill="none" xmlns="http://www.w3.org/2000/svg">
<rect width="156" height="208" fill="white"/>
<path d="M28.6054 156.239L28.452 160.75H26.4065V158H25.5884V156.239H28.6054ZM17.8384 158V146.364H19.8611V156.25H25.0884V146.364H27.1281V158H17.8384ZM34.9909 158V150.943H33.1273C32.6538 150.943 32.2902 151.053 32.0364 151.273C31.7826 151.492 31.6576 151.765 31.6614 152.091C31.6576 152.417 31.7769 152.686 32.0193 152.898C32.2617 153.11 32.6083 153.216 33.0591 153.216H35.6386V154.716H33.0591C32.3621 154.716 31.7598 154.606 31.2523 154.386C30.7447 154.167 30.3545 153.856 30.0818 153.455C29.8091 153.053 29.6727 152.583 29.6727 152.045C29.6727 151.485 29.811 150.998 30.0875 150.585C30.3678 150.169 30.7655 149.847 31.2807 149.619C31.7996 149.388 32.4152 149.273 33.1273 149.273H36.917V158H34.9909ZM29.3545 158L31.792 153.523H33.8205L31.3773 158H29.3545ZM41.492 158V156.25L41.8216 156.233C42.2686 156.206 42.6227 156.045 42.8841 155.75C43.1492 155.455 43.3443 154.979 43.4693 154.324C43.5981 153.669 43.6833 152.79 43.725 151.688L43.9182 146.364H51.5432V158H49.4807V148.097H45.8841L45.7023 152.341C45.6492 153.614 45.5091 154.669 45.2818 155.506C45.0583 156.343 44.6909 156.968 44.1795 157.381C43.672 157.794 42.9655 158 42.0602 158H41.492ZM55.8619 158.176C55.3089 158.176 54.8108 158.078 54.3676 157.881C53.9282 157.68 53.5797 157.384 53.3222 156.994C53.0684 156.604 52.9415 156.123 52.9415 155.551C52.9415 155.059 53.0324 154.652 53.2142 154.33C53.396 154.008 53.6441 153.75 53.9585 153.557C54.2729 153.364 54.6271 153.218 55.021 153.119C55.4188 153.017 55.8297 152.943 56.254 152.898C56.7653 152.845 57.1801 152.797 57.4983 152.756C57.8165 152.71 58.0475 152.642 58.1915 152.551C58.3392 152.456 58.4131 152.311 58.4131 152.114V152.08C58.4131 151.652 58.2862 151.32 58.0324 151.085C57.7786 150.85 57.4131 150.733 56.9358 150.733C56.432 150.733 56.0324 150.843 55.7369 151.062C55.4453 151.282 55.2483 151.542 55.146 151.841L53.2256 151.568C53.3771 151.038 53.6271 150.595 53.9756 150.239C54.3241 149.879 54.7502 149.61 55.254 149.432C55.7578 149.25 56.3146 149.159 56.9244 149.159C57.3449 149.159 57.7634 149.208 58.1801 149.307C58.5968 149.405 58.9775 149.568 59.3222 149.795C59.6669 150.019 59.9434 150.324 60.1517 150.71C60.3638 151.097 60.4699 151.58 60.4699 152.159V158H58.4926V156.801H58.4244C58.2994 157.044 58.1233 157.271 57.896 157.483C57.6725 157.691 57.3903 157.86 57.0494 157.989C56.7123 158.114 56.3165 158.176 55.8619 158.176ZM56.396 156.665C56.8089 156.665 57.1669 156.583 57.4699 156.42C57.7729 156.254 58.0059 156.034 58.1688 155.761C58.3354 155.489 58.4188 155.191 58.4188 154.869V153.841C58.3544 153.894 58.2445 153.943 58.0892 153.989C57.9377 154.034 57.7672 154.074 57.5778 154.108C57.3884 154.142 57.2009 154.172 57.0153 154.199C56.8297 154.225 56.6688 154.248 56.5324 154.267C56.2256 154.309 55.9509 154.377 55.7085 154.472C55.4661 154.566 55.2748 154.699 55.1347 154.869C54.9945 155.036 54.9244 155.252 54.9244 155.517C54.9244 155.896 55.0627 156.182 55.3392 156.375C55.6157 156.568 55.968 156.665 56.396 156.665ZM67.1608 155.608L69.7517 149.273H71.4108L67.8824 158H66.4449L62.996 149.273H64.6381L67.1608 155.608ZM64.121 149.273V158H62.1381V149.273H64.121ZM70.2858 158V149.273H72.2517V158H70.2858ZM73.9256 158V149.273H81.2949V158H79.3119V150.96H75.8915V158H73.9256ZM85.5213 158.176C84.9683 158.176 84.4702 158.078 84.027 157.881C83.5876 157.68 83.2391 157.384 82.9815 156.994C82.7277 156.604 82.6009 156.123 82.6009 155.551C82.6009 155.059 82.6918 154.652 82.8736 154.33C83.0554 154.008 83.3035 153.75 83.6179 153.557C83.9323 153.364 84.2865 153.218 84.6804 153.119C85.0781 153.017 85.4891 152.943 85.9134 152.898C86.4247 152.845 86.8395 152.797 87.1577 152.756C87.4759 152.71 87.7069 152.642 87.8509 152.551C87.9986 152.456 88.0724 152.311 88.0724 152.114V152.08C88.0724 151.652 87.9455 151.32 87.6918 151.085C87.438 150.85 87.0724 150.733 86.5952 150.733C86.0914 150.733 85.6918 150.843 85.3963 151.062C85.1046 151.282 84.9077 151.542 84.8054 151.841L82.8849 151.568C83.0365 151.038 83.2865 150.595 83.6349 150.239C83.9834 149.879 84.4096 149.61 84.9134 149.432C85.4171 149.25 85.974 149.159 86.5838 149.159C87.0043 149.159 87.4228 149.208 87.8395 149.307C88.2562 149.405 88.6368 149.568 88.9815 149.795C89.3262 150.019 89.6027 150.324 89.8111 150.71C90.0232 151.097 90.1293 151.58 90.1293 152.159V158H88.152V156.801H88.0838C87.9588 157.044 87.7827 157.271 87.5554 157.483C87.3319 157.691 87.0497 157.86 86.7088 157.989C86.3717 158.114 85.9759 158.176 85.5213 158.176ZM86.0554 156.665C86.4683 156.665 86.8262 156.583 87.1293 156.42C87.4323 156.254 87.6652 156.034 87.8281 155.761C87.9948 155.489 88.0781 155.191 88.0781 154.869V153.841C88.0137 153.894 87.9039 153.943 87.7486 153.989C87.5971 154.034 87.4266 154.074 87.2372 154.108C87.0478 154.142 86.8603 154.172 86.6747 154.199C86.4891 154.225 86.3281 154.248 86.1918 154.267C85.8849 154.309 85.6103 154.377 85.3679 154.472C85.1255 154.566 84.9342 154.699 84.794 154.869C84.6539 155.036 84.5838 155.252 84.5838 155.517C84.5838 155.896 84.7221 156.182 84.9986 156.375C85.2751 156.568 85.6274 156.665 86.0554 156.665ZM108.474 156.312L108.304 160.5H106.366V158H105.338V156.312H108.474ZM95.3662 149.273H97.3491V156.307H100.093V149.273H102.076V156.307H104.821V149.273H106.804V158H95.3662V149.273ZM113.47 158.17C112.595 158.17 111.84 157.989 111.203 157.625C110.571 157.258 110.084 156.739 109.743 156.068C109.402 155.394 109.232 154.6 109.232 153.688C109.232 152.79 109.402 152.002 109.743 151.324C110.088 150.642 110.569 150.112 111.186 149.733C111.804 149.35 112.529 149.159 113.363 149.159C113.9 149.159 114.408 149.246 114.885 149.42C115.366 149.591 115.791 149.856 116.158 150.216C116.529 150.576 116.821 151.034 117.033 151.591C117.245 152.144 117.351 152.803 117.351 153.568V154.199H110.198V152.812H115.38C115.376 152.419 115.291 152.068 115.124 151.761C114.957 151.451 114.724 151.206 114.425 151.028C114.13 150.85 113.785 150.761 113.391 150.761C112.97 150.761 112.601 150.864 112.283 151.068C111.965 151.269 111.717 151.534 111.539 151.864C111.364 152.189 111.275 152.547 111.272 152.938V154.148C111.272 154.655 111.364 155.091 111.55 155.455C111.736 155.814 111.995 156.091 112.328 156.284C112.662 156.473 113.052 156.568 113.499 156.568C113.798 156.568 114.069 156.527 114.311 156.443C114.554 156.356 114.764 156.229 114.942 156.062C115.12 155.896 115.255 155.689 115.345 155.443L117.266 155.659C117.145 156.167 116.914 156.61 116.573 156.989C116.236 157.364 115.804 157.655 115.277 157.864C114.751 158.068 114.148 158.17 113.47 158.17ZM128.254 152.784V154.472H123.607V152.784H128.254ZM124.243 149.273V158H122.26V149.273H124.243ZM129.601 149.273V158H127.624V149.273H129.601ZM135.145 158.17C134.27 158.17 133.515 157.989 132.878 157.625C132.246 157.258 131.759 156.739 131.418 156.068C131.077 155.394 130.907 154.6 130.907 153.688C130.907 152.79 131.077 152.002 131.418 151.324C131.763 150.642 132.244 150.112 132.861 149.733C133.479 149.35 134.204 149.159 135.038 149.159C135.575 149.159 136.083 149.246 136.56 149.42C137.041 149.591 137.466 149.856 137.833 150.216C138.204 150.576 138.496 151.034 138.708 151.591C138.92 152.144 139.026 152.803 139.026 153.568V154.199H131.873V152.812H137.055C137.051 152.419 136.966 152.068 136.799 151.761C136.632 151.451 136.399 151.206 136.1 151.028C135.805 150.85 135.46 150.761 135.066 150.761C134.645 150.761 134.276 150.864 133.958 151.068C133.64 151.269 133.392 151.534 133.214 151.864C133.039 152.189 132.95 152.547 132.947 152.938V154.148C132.947 154.655 133.039 155.091 133.225 155.455C133.411 155.814 133.67 156.091 134.003 156.284C134.337 156.473 134.727 156.568 135.174 156.568C135.473 156.568 135.744 156.527 135.986 156.443C136.229 156.356 136.439 156.229 136.617 156.062C136.795 155.896 136.93 155.689 137.02 155.443L138.941 155.659C138.82 156.167 138.589 156.61 138.248 156.989C137.911 157.364 137.479 157.655 136.952 157.864C136.426 158.068 135.823 158.17 135.145 158.17ZM23.6223 179.608H25.6621C25.681 179.934 25.8268 180.186 26.0996 180.364C26.3723 180.542 26.7265 180.631 27.1621 180.631C27.6053 180.631 27.9784 180.534 28.2814 180.341C28.5882 180.144 28.7416 179.847 28.7416 179.449C28.7416 179.214 28.6829 179.008 28.5655 178.83C28.4481 178.648 28.2833 178.508 28.0712 178.409C27.859 178.311 27.609 178.261 27.3212 178.261H25.9859V176.801H27.3212C27.7492 176.801 28.0731 176.703 28.2928 176.506C28.5162 176.309 28.628 176.061 28.628 175.761C28.628 175.439 28.5106 175.178 28.2757 174.977C28.0447 174.777 27.7246 174.676 27.3155 174.676C26.9064 174.676 26.5655 174.769 26.2928 174.955C26.0238 175.14 25.8837 175.379 25.8723 175.67H23.8439C23.8515 175.163 24.003 174.722 24.2984 174.347C24.5977 173.972 24.9992 173.68 25.503 173.472C26.0106 173.263 26.5825 173.159 27.2189 173.159C27.9007 173.159 28.4897 173.261 28.9859 173.466C29.4822 173.67 29.8647 173.956 30.1337 174.324C30.4026 174.687 30.5371 175.116 30.5371 175.608C30.5371 176.081 30.3893 176.473 30.0939 176.784C29.7984 177.091 29.4007 177.311 28.9007 177.443V177.534C29.2454 177.553 29.556 177.652 29.8325 177.83C30.109 178.004 30.3287 178.241 30.4916 178.54C30.6545 178.839 30.7359 179.186 30.7359 179.58C30.7359 180.114 30.5825 180.576 30.2757 180.966C29.9689 181.352 29.5465 181.65 29.0087 181.858C28.4746 182.066 27.8628 182.17 27.1734 182.17C26.503 182.17 25.9026 182.07 25.3723 181.869C24.8458 181.665 24.4272 181.371 24.1166 180.989C23.806 180.606 23.6412 180.146 23.6223 179.608ZM31.9553 185.273V173.273H33.978V174.716H34.0973C34.2034 174.504 34.353 174.278 34.5462 174.04C34.7393 173.797 35.0007 173.591 35.3303 173.42C35.6598 173.246 36.0803 173.159 36.5916 173.159C37.2659 173.159 37.8738 173.331 38.4155 173.676C38.9609 174.017 39.3928 174.523 39.7109 175.193C40.0329 175.86 40.1939 176.678 40.1939 177.648C40.1939 178.606 40.0367 179.42 39.7223 180.091C39.4079 180.761 38.9799 181.273 38.4382 181.625C37.8965 181.977 37.2829 182.153 36.5973 182.153C36.0973 182.153 35.6825 182.07 35.353 181.903C35.0234 181.737 34.7583 181.536 34.5575 181.301C34.3606 181.062 34.2072 180.837 34.0973 180.625H34.0121V185.273H31.9553ZM33.9723 177.636C33.9723 178.201 34.0518 178.695 34.2109 179.119C34.3738 179.544 34.6068 179.875 34.9098 180.114C35.2166 180.348 35.5878 180.466 36.0234 180.466C36.478 180.466 36.8587 180.345 37.1655 180.102C37.4723 179.856 37.7034 179.521 37.8587 179.097C38.0178 178.669 38.0973 178.182 38.0973 177.636C38.0973 177.095 38.0197 176.614 37.8643 176.193C37.709 175.773 37.478 175.443 37.1712 175.205C36.8643 174.966 36.4818 174.847 36.0234 174.847C35.584 174.847 35.2109 174.962 34.9041 175.193C34.5973 175.424 34.3643 175.748 34.2053 176.165C34.05 176.581 33.9723 177.072 33.9723 177.636ZM45.3621 182.17C44.5098 182.17 43.7712 181.983 43.1462 181.608C42.5212 181.233 42.0363 180.708 41.6916 180.034C41.3507 179.36 41.1803 178.572 41.1803 177.67C41.1803 176.769 41.3507 175.979 41.6916 175.301C42.0363 174.623 42.5212 174.097 43.1462 173.722C43.7712 173.347 44.5098 173.159 45.3621 173.159C46.2143 173.159 46.953 173.347 47.578 173.722C48.203 174.097 48.6859 174.623 49.0268 175.301C49.3715 175.979 49.5439 176.769 49.5439 177.67C49.5439 178.572 49.3715 179.36 49.0268 180.034C48.6859 180.708 48.203 181.233 47.578 181.608C46.953 181.983 46.2143 182.17 45.3621 182.17ZM45.3734 180.523C45.8356 180.523 46.2219 180.396 46.5325 180.142C46.8431 179.884 47.0742 179.54 47.2257 179.108C47.381 178.676 47.4587 178.195 47.4587 177.665C47.4587 177.131 47.381 176.648 47.2257 176.216C47.0742 175.78 46.8431 175.434 46.5325 175.176C46.2219 174.919 45.8356 174.79 45.3734 174.79C44.9 174.79 44.506 174.919 44.1916 175.176C43.881 175.434 43.6481 175.78 43.4928 176.216C43.3412 176.648 43.2655 177.131 43.2655 177.665C43.2655 178.195 43.3412 178.676 43.4928 179.108C43.6481 179.54 43.881 179.884 44.1916 180.142C44.506 180.396 44.9 180.523 45.3734 180.523ZM57.884 170.045L58.5999 171.375C58.3461 171.595 58.062 171.754 57.7476 171.852C57.4332 171.951 57.0639 172.015 56.6396 172.045C56.2192 172.072 55.7192 172.091 55.1396 172.102C54.4881 172.117 53.9559 172.241 53.543 172.472C53.1302 172.703 52.8139 173.053 52.5942 173.523C52.3745 173.989 52.2305 174.583 52.1624 175.307H52.2589C52.5317 174.773 52.9143 174.366 53.4067 174.085C53.8991 173.805 54.4768 173.665 55.1396 173.665C55.8631 173.665 56.5014 173.828 57.0544 174.153C57.6112 174.475 58.0449 174.943 58.3555 175.557C58.6699 176.17 58.8271 176.913 58.8271 177.784C58.8271 178.682 58.6586 179.46 58.3215 180.119C57.9843 180.775 57.5052 181.28 56.8839 181.636C56.2665 181.992 55.5336 182.17 54.6851 182.17C53.8404 182.17 53.1055 181.987 52.4805 181.619C51.8593 181.248 51.3783 180.701 51.0374 179.977C50.7002 179.25 50.5317 178.354 50.5317 177.29V176.506C50.5317 174.453 50.9143 172.92 51.6794 171.909C52.4446 170.898 53.579 170.383 55.0828 170.364C55.5298 170.356 55.9294 170.354 56.2817 170.358C56.6377 170.362 56.9483 170.345 57.2135 170.307C57.4786 170.269 57.7021 170.182 57.884 170.045ZM54.6964 180.523C55.1169 180.523 55.4805 180.415 55.7874 180.199C56.0942 179.979 56.329 179.669 56.4919 179.267C56.6586 178.866 56.7419 178.39 56.7419 177.841C56.7419 177.299 56.6586 176.839 56.4919 176.46C56.3252 176.078 56.0885 175.786 55.7817 175.585C55.4749 175.384 55.1093 175.284 54.6851 175.284C54.3669 175.284 54.0809 175.341 53.8271 175.455C53.5733 175.568 53.3574 175.735 53.1794 175.955C53.0014 176.174 52.865 176.441 52.7703 176.756C52.6756 177.07 52.6245 177.432 52.6169 177.841C52.6169 178.663 52.8025 179.316 53.1737 179.801C53.5449 180.282 54.0525 180.523 54.6964 180.523ZM62.1601 179.216L65.6544 173.273H67.768V182H65.7794V176.051L62.2965 182H60.1771V173.273H62.1601V179.216ZM68.878 182L68.8666 180.307H69.1678C69.395 180.307 69.5863 180.256 69.7416 180.153C69.8969 180.051 70.0257 179.881 70.128 179.642C70.2303 179.4 70.3098 179.074 70.3666 178.665C70.4234 178.256 70.4632 177.746 70.4859 177.136L70.6393 173.273H77.003V182H75.0143V174.96H72.5087L72.3723 177.773C72.3382 178.5 72.2568 179.131 72.128 179.665C72.003 180.195 71.825 180.633 71.5939 180.977C71.3666 181.322 71.0806 181.58 70.7359 181.75C70.3912 181.917 69.984 182 69.5143 182H68.878ZM81.1854 182.176C80.6323 182.176 80.1342 182.078 79.6911 181.881C79.2517 181.68 78.9032 181.384 78.6456 180.994C78.3918 180.604 78.2649 180.123 78.2649 179.551C78.2649 179.059 78.3558 178.652 78.5376 178.33C78.7195 178.008 78.9676 177.75 79.282 177.557C79.5964 177.364 79.9505 177.218 80.3445 177.119C80.7422 177.017 81.1532 176.943 81.5774 176.898C82.0888 176.845 82.5036 176.797 82.8217 176.756C83.1399 176.71 83.371 176.642 83.5149 176.551C83.6626 176.456 83.7365 176.311 83.7365 176.114V176.08C83.7365 175.652 83.6096 175.32 83.3558 175.085C83.102 174.85 82.7365 174.733 82.2592 174.733C81.7554 174.733 81.3558 174.843 81.0604 175.062C80.7687 175.282 80.5717 175.542 80.4695 175.841L78.549 175.568C78.7005 175.038 78.9505 174.595 79.299 174.239C79.6475 173.879 80.0736 173.61 80.5774 173.432C81.0812 173.25 81.638 173.159 82.2479 173.159C82.6683 173.159 83.0869 173.208 83.5036 173.307C83.9202 173.405 84.3009 173.568 84.6456 173.795C84.9903 174.019 85.2668 174.324 85.4751 174.71C85.6873 175.097 85.7933 175.58 85.7933 176.159V182H83.8161V180.801H83.7479C83.6229 181.044 83.4467 181.271 83.2195 181.483C82.996 181.691 82.7138 181.86 82.3729 181.989C82.0357 182.114 81.6399 182.176 81.1854 182.176ZM81.7195 180.665C82.1323 180.665 82.4903 180.583 82.7933 180.42C83.0964 180.254 83.3293 180.034 83.4922 179.761C83.6589 179.489 83.7422 179.191 83.7422 178.869V177.841C83.6778 177.894 83.5679 177.943 83.4126 177.989C83.2611 178.034 83.0907 178.074 82.9013 178.108C82.7119 178.142 82.5244 178.172 82.3388 178.199C82.1532 178.225 81.9922 178.248 81.8558 178.267C81.549 178.309 81.2744 178.377 81.032 178.472C80.7895 178.566 80.5982 178.699 80.4581 178.869C80.3179 179.036 80.2479 179.252 80.2479 179.517C80.2479 179.896 80.3861 180.182 80.6626 180.375C80.9392 180.568 81.2914 180.665 81.7195 180.665ZM94.8371 182.17C93.9659 182.17 93.2178 181.979 92.5928 181.597C91.9715 181.214 91.4924 180.686 91.1553 180.011C90.8219 179.333 90.6553 178.553 90.6553 177.67C90.6553 176.784 90.8257 176.002 91.1666 175.324C91.5075 174.642 91.9886 174.112 92.6098 173.733C93.2348 173.35 93.9734 173.159 94.8257 173.159C95.534 173.159 96.1609 173.29 96.7064 173.551C97.2556 173.809 97.6931 174.174 98.0189 174.648C98.3447 175.117 98.5303 175.667 98.5757 176.295H96.6098C96.5303 175.875 96.3409 175.525 96.0416 175.244C95.7462 174.96 95.3503 174.818 94.8541 174.818C94.4337 174.818 94.0644 174.932 93.7462 175.159C93.428 175.383 93.1799 175.705 93.0019 176.125C92.8276 176.545 92.7405 177.049 92.7405 177.636C92.7405 178.231 92.8276 178.742 93.0019 179.17C93.1761 179.595 93.4204 179.922 93.7348 180.153C94.053 180.381 94.4261 180.494 94.8541 180.494C95.1572 180.494 95.428 180.437 95.6666 180.324C95.909 180.206 96.1117 180.038 96.2746 179.818C96.4375 179.598 96.5492 179.331 96.6098 179.017H98.5757C98.5265 179.634 98.3447 180.182 98.0303 180.659C97.7159 181.133 97.2878 181.504 96.7462 181.773C96.2045 182.038 95.5681 182.17 94.8371 182.17ZM103.728 182.17C102.853 182.17 102.098 181.989 101.461 181.625C100.829 181.258 100.342 180.739 100.001 180.068C99.6601 179.394 99.4896 178.6 99.4896 177.688C99.4896 176.79 99.6601 176.002 100.001 175.324C100.346 174.642 100.827 174.112 101.444 173.733C102.062 173.35 102.787 173.159 103.62 173.159C104.158 173.159 104.666 173.246 105.143 173.42C105.624 173.591 106.048 173.856 106.416 174.216C106.787 174.576 107.079 175.034 107.291 175.591C107.503 176.144 107.609 176.803 107.609 177.568V178.199H100.456V176.812H105.637C105.634 176.419 105.548 176.068 105.382 175.761C105.215 175.451 104.982 175.206 104.683 175.028C104.387 174.85 104.043 174.761 103.649 174.761C103.228 174.761 102.859 174.864 102.541 175.068C102.223 175.269 101.974 175.534 101.796 175.864C101.622 176.189 101.533 176.547 101.529 176.938V178.148C101.529 178.655 101.622 179.091 101.808 179.455C101.993 179.814 102.253 180.091 102.586 180.284C102.92 180.473 103.31 180.568 103.757 180.568C104.056 180.568 104.327 180.527 104.569 180.443C104.812 180.356 105.022 180.229 105.2 180.062C105.378 179.896 105.512 179.689 105.603 179.443L107.524 179.659C107.403 180.167 107.171 180.61 106.831 180.989C106.493 181.364 106.062 181.655 105.535 181.864C105.009 182.068 104.406 182.17 103.728 182.17ZM108.347 182L108.335 180.307H108.637C108.864 180.307 109.055 180.256 109.21 180.153C109.366 180.051 109.494 179.881 109.597 179.642C109.699 179.4 109.779 179.074 109.835 178.665C109.892 178.256 109.932 177.746 109.955 177.136L110.108 173.273H116.472V182H114.483V174.96H111.977L111.841 177.773C111.807 178.5 111.726 179.131 111.597 179.665C111.472 180.195 111.294 180.633 111.063 180.977C110.835 181.322 110.549 181.58 110.205 181.75C109.86 181.917 109.453 182 108.983 182H108.347ZM122.103 184.966V170.364H124.165V184.966H122.103ZM122.103 182.17C121.463 182.17 120.878 182.062 120.347 181.847C119.817 181.631 119.359 181.324 118.972 180.926C118.59 180.528 118.292 180.055 118.08 179.506C117.872 178.953 117.768 178.341 117.768 177.67C117.768 177 117.872 176.388 118.08 175.835C118.292 175.282 118.59 174.807 118.972 174.409C119.359 174.008 119.817 173.699 120.347 173.483C120.878 173.267 121.463 173.159 122.103 173.159H122.54V182.17H122.103ZM122.103 180.511H122.359V174.818H122.103C121.739 174.818 121.417 174.894 121.137 175.045C120.861 175.193 120.628 175.4 120.438 175.665C120.253 175.926 120.111 176.229 120.012 176.574C119.917 176.915 119.87 177.28 119.87 177.67C119.87 178.189 119.955 178.665 120.126 179.097C120.296 179.525 120.546 179.867 120.876 180.125C121.209 180.383 121.618 180.511 122.103 180.511ZM124.165 182.17H123.728V173.159H124.165C124.806 173.159 125.391 173.267 125.921 173.483C126.451 173.699 126.908 174.008 127.29 174.409C127.677 174.807 127.974 175.282 128.183 175.835C128.395 176.388 128.501 177 128.501 177.67C128.501 178.341 128.395 178.953 128.183 179.506C127.974 180.055 127.677 180.528 127.29 180.926C126.908 181.324 126.451 181.631 125.921 181.847C125.391 182.062 124.806 182.17 124.165 182.17ZM124.165 180.511C124.533 180.511 124.855 180.437 125.131 180.29C125.408 180.142 125.639 179.937 125.825 179.676C126.014 179.415 126.156 179.114 126.251 178.773C126.345 178.428 126.393 178.061 126.393 177.67C126.393 177.152 126.309 176.676 126.143 176.244C125.976 175.812 125.726 175.468 125.393 175.21C125.063 174.949 124.654 174.818 124.165 174.818H123.91V180.511H124.165ZM129.837 182V173.273H131.893V182H129.837ZM130.871 172.034C130.545 172.034 130.265 171.926 130.03 171.71C129.795 171.491 129.677 171.227 129.677 170.92C129.677 170.61 129.795 170.347 130.03 170.131C130.265 169.911 130.545 169.801 130.871 169.801C131.2 169.801 131.48 169.911 131.712 170.131C131.946 170.347 132.064 170.61 132.064 170.92C132.064 171.227 131.946 171.491 131.712 171.71C131.48 171.926 131.2 172.034 130.871 172.034Z" fill="#A1A1AA"/>
<path d="M16 116H48.6383H139.609L125.373 75.5043L111.137 35.0085H34.7497L16 116Z" fill="#DBE4E8" stroke="#A1A1AA" stroke-linejoin="round"/>
<path d="M77.4132 65.6752L69.5898 116H140L98.145 35.0085L77.4132 65.6752Z" fill="white"/>
<path d="M61.561 23.5849C61.4506 23.5107 61.3152 23.4837 61.1847 23.5096C61.0543 23.5356 60.9395 23.6125 60.8659 23.7232L53.2991 35.1086C53.2256 35.2192 53.1991 35.3545 53.2255 35.4847C53.2519 35.6148 53.329 35.7291 53.4398 35.8024L58.1867 38.9413L44.2045 59.933H43.8379C38.5753 59.933 34.2759 64.258 34.2759 69.5413L34.2759 69.5427C34.2818 71.7353 35.0339 73.8603 36.4077 75.5645C37.7385 77.2153 39.5751 78.3751 41.6291 78.8651L59.3077 105.474H43.8379C43.5618 105.474 43.3379 105.698 43.3379 105.974V115.083C43.3379 115.359 43.5618 115.583 43.8379 115.583H89.1481C89.4243 115.583 89.6481 115.359 89.6481 115.083V105.974C89.6481 105.698 89.4243 105.474 89.1481 105.474H71.2927L51.389 75.3993C52.6823 73.7266 53.3914 71.6681 53.4 69.5433V69.5413C53.4 68.195 53.1085 66.8509 52.5651 65.6244L65.8559 45.7534C65.7209 53.0743 70.1244 60.6832 77.3197 65.4052C77.5494 65.556 77.8577 65.4931 78.0101 65.2644L98.1278 35.0705C98.2805 34.8414 98.2192 34.5319 97.9906 34.3783C90.3174 29.2215 80.8379 28.2126 73.9939 31.9306L61.561 23.5849ZM95.4583 46.3591C95.3478 46.2828 95.2111 46.2542 95.0792 46.2798C94.9473 46.3054 94.8312 46.3829 94.7572 46.4951L87.2357 57.8804C87.0838 58.1103 87.1465 58.4197 87.376 58.5723C90.6856 60.7737 95.256 59.8939 97.4941 56.5196C99.7366 53.1387 98.707 48.6009 95.4583 46.3591ZM110.089 72.5345C110.183 72.6296 110.311 72.683 110.445 72.6827C110.579 72.6824 110.707 72.6284 110.801 72.5328L113.973 69.2994C114.164 69.104 114.163 68.7907 113.97 68.5966L104.364 58.9419C104.27 58.8475 104.143 58.7945 104.01 58.7945C103.877 58.7945 103.749 58.8475 103.655 58.9419L100.484 62.1297C100.29 62.3245 100.29 62.639 100.483 62.8342L110.089 72.5345ZM116.334 47.2707C116.61 47.2707 116.834 47.0468 116.834 46.7707V42.2165C116.834 41.9404 116.61 41.7165 116.334 41.7165H102.741C102.465 41.7165 102.241 41.9404 102.241 42.2165V46.7707C102.241 47.0468 102.465 47.2707 102.741 47.2707H116.334ZM84.1171 78.6496C84.1171 78.9257 84.3409 79.1496 84.6171 79.1496H89.1481C89.4243 79.1496 89.6481 78.9257 89.6481 78.6496V64.9872C89.6481 64.711 89.4243 64.4872 89.1481 64.4872H84.6171C84.3409 64.4872 84.1171 64.711 84.1171 64.9872V78.6496Z" fill="white" stroke="#A1A1AA" stroke-linejoin="round"/>
<g clip-path="url(#clip0_55855_10577)">
<rect x="96" y="84" width="52" height="52" rx="4" fill="white"/>
<path fill-rule="evenodd" clip-rule="evenodd" d="M100.333 97C100.333 95.2761 101.018 93.6228 102.237 92.4038C103.456 91.1848 105.11 90.5 106.833 90.5H137.167C138.891 90.5 140.544 91.1848 141.763 92.4038C142.982 93.6228 143.667 95.2761 143.667 97V123C143.667 124.724 142.982 126.377 141.763 127.596C140.544 128.815 138.891 129.5 137.167 129.5H106.833C105.11 129.5 103.456 128.815 102.237 127.596C101.018 126.377 100.333 124.724 100.333 123V97ZM106.833 94.8333C106.259 94.8333 105.708 95.0616 105.301 95.4679C104.895 95.8743 104.667 96.4254 104.667 97V123C104.667 123.575 104.895 124.126 105.301 124.532C105.708 124.938 106.259 125.167 106.833 125.167H137.167C137.741 125.167 138.293 124.938 138.699 124.532C139.105 124.126 139.333 123.575 139.333 123V97C139.333 96.4254 139.105 95.8743 138.699 95.4679C138.293 95.0616 137.741 94.8333 137.167 94.8333H106.833ZM130.667 99.1667C130.667 98.592 130.895 98.0409 131.301 97.6346C131.708 97.2283 132.259 97 132.833 97H135C135.575 97 136.126 97.2283 136.532 97.6346C136.939 98.0409 137.167 98.592 137.167 99.1667C137.167 99.7413 136.939 100.292 136.532 100.699C136.126 101.105 135.575 101.333 135 101.333H132.833C132.259 101.333 131.708 101.105 131.301 100.699C130.895 100.292 130.667 99.7413 130.667 99.1667ZM115.5 110C115.5 108.276 116.185 106.623 117.404 105.404C118.623 104.185 120.276 103.5 122 103.5C123.724 103.5 125.377 104.185 126.596 105.404C127.815 106.623 128.5 108.276 128.5 110C128.5 111.724 127.815 113.377 126.596 114.596C125.377 115.815 123.724 116.5 122 116.5C120.276 116.5 118.623 115.815 117.404 114.596C116.185 113.377 115.5 111.724 115.5 110ZM122 99.1667C119.127 99.1667 116.371 100.308 114.34 102.34C112.308 104.371 111.167 107.127 111.167 110C111.167 112.873 112.308 115.629 114.34 117.66C116.371 119.692 119.127 120.833 122 120.833C124.873 120.833 127.629 119.692 129.66 117.66C131.692 115.629 132.833 112.873 132.833 110C132.833 107.127 131.692 104.371 129.66 102.34C127.629 100.308 124.873 99.1667 122 99.1667Z" fill="#DBE4E8"/>
</g>
<defs>
<clipPath id="clip0_55855_10577">
<rect x="96" y="84" width="52" height="52" rx="4" fill="white"/>
</clipPath>
</defs>
</svg>
