<svg width="834" height="423" viewBox="0 0 834 423" fill="none" xmlns="http://www.w3.org/2000/svg">
<path d="M32.4336 275.3H128.778H397.312L355.29 154.561L313.267 33.8221H87.7804L32.4336 275.3Z" fill="#0E0E0F" stroke="#0E0E0F" stroke-linejoin="round"/>
<path d="M213.721 125.256L0 423H834L274.919 33.8221L213.721 125.256Z" fill="#FFE34E"/>
<path d="M166.382 0.586153C166.271 0.511063 166.135 0.483498 166.004 0.509622C165.873 0.535747 165.757 0.613381 165.684 0.72516L143.347 34.6708C143.196 34.9003 143.259 35.2088 143.487 35.3614L158.322 45.269L116.211 109.126H114.607C99.6117 109.126 87.3574 121.577 87.3574 136.782L87.3574 136.784C87.3742 143.095 89.5175 149.212 93.4327 154.117C97.3051 158.969 102.681 162.347 108.684 163.704L162.098 244.908H114.607C114.331 244.908 114.107 245.132 114.107 245.408V272.565C114.107 272.841 114.331 273.065 114.607 273.065H248.358C248.634 273.065 248.858 272.841 248.858 272.565V245.408C248.858 245.132 248.634 244.908 248.358 244.908H195.128L135.691 154.195C139.653 149.285 141.832 143.137 141.858 136.784V136.782C141.858 132.728 140.947 128.676 139.254 125.012L180.765 62.3267C178.8 84.7941 191.791 108.916 213.975 123.621C214.086 123.694 214.221 123.721 214.351 123.694C214.482 123.668 214.596 123.59 214.669 123.48L274.054 33.4558C274.205 33.2274 274.144 32.9204 273.917 32.7667C251.299 17.4134 223.423 14.5961 203.575 25.8029L166.382 0.586153ZM266.433 68.481C266.322 68.4037 266.184 68.3746 266.051 68.4004C265.919 68.4261 265.802 68.5044 265.728 68.6175L243.526 102.563C243.376 102.792 243.438 103.099 243.665 103.252C252.991 109.517 265.877 107.01 272.182 97.4084C278.49 87.8032 275.606 74.875 266.433 68.481ZM310.863 145.008C310.958 145.104 311.087 145.158 311.222 145.158C311.356 145.158 311.485 145.103 311.579 145.006L320.942 135.366C321.131 135.171 321.13 134.86 320.939 134.666L292.584 105.881C292.49 105.785 292.362 105.731 292.228 105.731C292.094 105.731 291.966 105.785 291.872 105.881L282.509 115.385C282.318 115.58 282.317 115.891 282.508 116.086L310.863 145.008ZM328.608 69.3912C328.884 69.3912 329.108 69.1674 329.108 68.8912V55.313C329.108 55.0368 328.884 54.813 328.608 54.813H288.483C288.207 54.813 287.983 55.0368 287.983 55.313V68.8912C287.983 69.1674 288.207 69.3912 288.483 69.3912H328.608ZM234.483 163.939C234.483 164.215 234.707 164.439 234.983 164.439H248.358C248.634 164.439 248.858 164.215 248.858 163.939V123.204C248.858 122.928 248.634 122.704 248.358 122.704H234.983C234.707 122.704 234.483 122.928 234.483 123.204V163.939Z" fill="#0E0E0F" stroke="white" stroke-linejoin="round"/>
</svg>
