<svg width="360" height="181" viewBox="0 0 360 181" fill="none" xmlns="http://www.w3.org/2000/svg">
<path d="M14 118H55.5875H171.502L153.362 66.5L135.223 15H37.8907L14 118Z" fill="#0E0E0F" stroke="#0E0E0F" stroke-linejoin="round"/>
<path d="M92.2537 54L0 181H360L118.67 15L92.2537 54Z" fill="#FFE34E"/>
<path d="M71.977 0.584609C71.8666 0.510664 71.7314 0.483683 71.6011 0.509624C71.4708 0.535565 71.3561 0.612293 71.2825 0.722873L61.6409 15.202C61.5672 15.3127 61.5407 15.4482 61.5671 15.5785C61.5935 15.7088 61.6707 15.8232 61.7817 15.8965L67.9439 19.9634L50.0119 46.8333H49.4711C42.8427 46.8333 37.4243 52.2712 37.4243 58.9167L37.4243 58.918C37.4317 61.676 38.3796 64.3485 40.1106 66.4917C41.7987 68.5817 44.1326 70.0456 46.7412 70.6544L69.4373 104.75H49.4711C49.195 104.75 48.9711 104.974 48.9711 105.25V116.833C48.9711 117.109 49.195 117.333 49.4711 117.333H107.205C107.481 117.333 107.705 117.109 107.705 116.833V105.25C107.705 104.974 107.481 104.75 107.205 104.75H84.3799L58.9243 66.3601C60.5917 64.243 61.507 61.6236 61.5179 58.9187V58.9167C61.5179 57.1988 61.1398 55.4834 60.4354 53.9223L77.6772 28.1939C77.3034 37.5931 82.9161 47.4564 92.2089 53.5433C92.4385 53.6936 92.7464 53.6309 92.8988 53.4026L118.533 15.0039C118.686 14.7745 118.624 14.4646 118.395 14.311C108.623 7.75592 96.5591 6.49939 87.8883 11.2447L71.977 0.584609ZM115.167 29.5465C115.057 29.4704 114.92 29.4419 114.789 29.4675C114.657 29.493 114.541 29.5704 114.467 29.6824L104.883 44.1615C104.731 44.3916 104.793 44.7015 105.023 44.8541C109.177 47.6118 114.915 46.5098 117.725 42.2817C120.54 38.0465 119.248 32.3574 115.167 29.5465ZM133.985 62.628C134.079 62.7229 134.208 62.7761 134.341 62.7758C134.475 62.7755 134.603 62.7217 134.697 62.6263L138.738 58.5142C138.93 58.3187 138.929 58.0049 138.736 57.8108L126.496 45.5324C126.402 45.4383 126.275 45.3854 126.142 45.3854C126.009 45.3854 125.882 45.4383 125.788 45.5324L121.746 49.5866C121.552 49.7814 121.552 50.0965 121.745 50.2917L133.985 62.628ZM141.845 30.4583C142.122 30.4583 142.345 30.2345 142.345 29.9583V24.1667C142.345 23.8905 142.122 23.6667 141.845 23.6667H124.525C124.249 23.6667 124.025 23.8905 124.025 24.1667V29.9583C124.025 30.2345 124.249 30.4583 124.525 30.4583H141.845ZM100.932 70.5C100.932 70.7761 101.156 71 101.432 71H107.205C107.481 71 107.705 70.7761 107.705 70.5V53.125C107.705 52.8489 107.481 52.625 107.205 52.625H101.432C101.156 52.625 100.932 52.8489 100.932 53.125V70.5Z" fill="#0E0E0F" stroke="white" stroke-linejoin="round"/>
</svg>
