<svg width="1440" height="423" viewBox="0 0 1440 423" fill="none" xmlns="http://www.w3.org/2000/svg">
<path d="M31.4453 275.3H127.823H396.451L354.414 154.561L312.376 33.8221H86.8113L31.4453 275.3Z" fill="#0E0E0F" stroke="#0E0E0F" stroke-linejoin="round"/>
<path d="M212.795 125.256L0 423H1440L274.014 33.8221L212.795 125.256Z" fill="#FFE34E"/>
<path d="M165.442 0.586108C165.332 0.511052 165.195 0.483503 165.064 0.509622C164.933 0.535742 164.818 0.61335 164.744 0.725094L142.4 34.6707C142.249 34.9003 142.311 35.2088 142.54 35.3614L157.379 45.269L115.254 109.126H113.65C98.6493 109.126 86.3906 121.577 86.3906 136.782L86.3906 136.784C86.4074 143.095 88.5515 149.212 92.468 154.117C96.3418 158.969 101.719 162.347 107.724 163.704L161.157 244.908H113.65C113.374 244.908 113.15 245.132 113.15 245.408V272.565C113.15 272.841 113.374 273.065 113.65 273.065H247.447C247.723 273.065 247.947 272.841 247.947 272.565V245.408C247.947 245.132 247.723 244.908 247.447 244.908H194.198L134.74 154.195C138.704 149.285 140.884 143.137 140.909 136.784V136.782C140.909 132.728 139.999 128.676 138.305 125.012L179.83 62.3261C177.865 84.7938 190.861 108.916 213.052 123.621C213.163 123.694 213.298 123.721 213.429 123.694C213.559 123.668 213.673 123.59 213.746 123.48L273.152 33.4558C273.302 33.2274 273.242 32.9203 273.015 32.7667C250.389 17.4133 222.503 14.5961 202.648 25.803L165.442 0.586108ZM265.528 68.481C265.417 68.4037 265.279 68.3746 265.147 68.4004C265.014 68.4261 264.897 68.5044 264.823 68.6175L242.613 102.563C242.463 102.792 242.525 103.099 242.753 103.252C252.082 109.517 264.972 107.01 271.279 97.4085C277.589 87.8032 274.704 74.8749 265.528 68.481ZM309.974 145.008C310.069 145.104 310.198 145.158 310.332 145.158C310.467 145.158 310.596 145.103 310.69 145.006L320.056 135.366C320.245 135.171 320.244 134.86 320.053 134.666L291.688 105.88C291.594 105.785 291.466 105.731 291.332 105.731C291.198 105.731 291.07 105.785 290.976 105.88L281.61 115.385C281.419 115.58 281.418 115.891 281.609 116.086L309.974 145.008ZM327.725 69.3912C328.001 69.3912 328.225 69.1674 328.225 68.8912V55.313C328.225 55.0368 328.001 54.813 327.725 54.813H287.586C287.31 54.813 287.086 55.0368 287.086 55.313V68.8912C287.086 69.1674 287.31 69.3912 287.586 69.3912H327.725ZM233.567 163.939C233.567 164.215 233.791 164.439 234.067 164.439H247.447C247.723 164.439 247.947 164.215 247.947 163.939V123.204C247.947 122.928 247.723 122.704 247.447 122.704H234.067C233.791 122.704 233.567 122.928 233.567 123.204V163.939Z" fill="#0E0E0F" stroke="white" stroke-linejoin="round"/>
</svg>
