<svg id="minus-icon" aria-hidden="true" version="1.1" xmlns="http://www.w3.org/2000/svg" xmlns:xlink="http://www.w3.org/1999/xlink">
<defs>
<symbol id="icon-star" viewBox="0 0 33 32">
<path d="M25.491 31.543c-0.392 0-0.782-0.12-1.117-0.36l-7.889-5.657-7.888 5.657c-0.672 0.481-1.574 0.481-2.242-0.008-0.668-0.484-0.949-1.343-0.699-2.128l2.942-9.495-7.818-5.509c-0.664-0.49-0.941-1.351-0.687-2.136 0.256-0.784 0.985-1.316 1.809-1.322l9.682-0.015 3.083-9.26c0.26-0.784 0.992-1.312 1.817-1.312s1.557 0.528 1.818 1.312l3.030 9.26 9.732 0.015c0.827 0.006 1.557 0.539 1.81 1.322 0.255 0.785-0.021 1.647-0.687 2.136l-7.818 5.509 2.942 9.495c0.252 0.785-0.032 1.644-0.698 2.128-0.337 0.246-0.73 0.367-1.125 0.367z"></path>
</symbol>
</defs>
</svg>
