<svg width="153" height="15" viewBox="0 0 153 15" fill="none" xmlns="http://www.w3.org/2000/svg">
<path d="M7.08496 14.2549C6.1123 14.2549 5.21289 14.1113 4.38672 13.8242C3.56641 13.5371 2.86035 13.1094 2.26855 12.541C1.67676 11.9727 1.2168 11.2637 0.888672 10.4141C0.566406 9.56445 0.405273 8.58301 0.405273 7.46973C0.405273 6.43262 0.560547 5.49219 0.871094 4.64844C1.18164 3.80469 1.63281 3.08105 2.22461 2.47754C2.79297 1.89746 3.49609 1.44922 4.33398 1.13281C5.17773 0.816406 6.09766 0.658203 7.09375 0.658203C7.64453 0.658203 8.13965 0.69043 8.5791 0.754883C9.02441 0.813477 9.43457 0.892578 9.80957 0.992188C10.2021 1.10352 10.5566 1.22949 10.873 1.37012C11.1953 1.50488 11.4766 1.63086 11.7168 1.74805V4.9209H11.3301C11.166 4.78027 10.958 4.61328 10.7061 4.41992C10.46 4.22656 10.1787 4.03613 9.8623 3.84863C9.54004 3.66113 9.19141 3.50293 8.81641 3.37402C8.44141 3.24512 8.04004 3.18066 7.6123 3.18066C7.1377 3.18066 6.68652 3.25684 6.25879 3.40918C5.83105 3.55566 5.43555 3.80176 5.07227 4.14746C4.72656 4.48145 4.44531 4.92383 4.22852 5.47461C4.01758 6.02539 3.91211 6.69336 3.91211 7.47852C3.91211 8.29883 4.02637 8.98438 4.25488 9.53516C4.48926 10.0859 4.78223 10.5195 5.13379 10.8359C5.49121 11.1582 5.88965 11.3896 6.3291 11.5303C6.76855 11.665 7.20215 11.7324 7.62988 11.7324C8.04004 11.7324 8.44434 11.6709 8.84277 11.5479C9.24707 11.4248 9.61914 11.2578 9.95898 11.0469C10.2461 10.877 10.5127 10.6953 10.7588 10.502C11.0049 10.3086 11.207 10.1416 11.3652 10.001H11.7168V13.1299C11.3887 13.2764 11.0752 13.4141 10.7764 13.543C10.4775 13.6719 10.1641 13.7832 9.83594 13.877C9.4082 14 9.00684 14.0938 8.63184 14.1582C8.25684 14.2227 7.74121 14.2549 7.08496 14.2549ZM27.3926 9.99219C27.3926 10.625 27.2637 11.1904 27.0059 11.6885C26.7539 12.1865 26.4053 12.5996 25.96 12.9277C25.4443 13.3145 24.876 13.5898 24.2549 13.7539C23.6396 13.918 22.8574 14 21.9082 14H16.1953V0.913086H21.2754C22.3301 0.913086 23.1006 0.948242 23.5869 1.01855C24.0791 1.08887 24.5654 1.24414 25.0459 1.48438C25.5439 1.73633 25.9131 2.07617 26.1533 2.50391C26.3994 2.92578 26.5225 3.40918 26.5225 3.9541C26.5225 4.58691 26.3555 5.14648 26.0215 5.63281C25.6875 6.11328 25.2158 6.48828 24.6064 6.75781V6.82812C25.4619 6.99805 26.1387 7.34961 26.6367 7.88281C27.1406 8.41602 27.3926 9.11914 27.3926 9.99219ZM23.0684 4.61328C23.0684 4.39648 23.0127 4.17969 22.9014 3.96289C22.7959 3.74609 22.6055 3.58496 22.3301 3.47949C22.084 3.38574 21.7764 3.33594 21.4072 3.33008C21.0439 3.31836 20.5312 3.3125 19.8691 3.3125H19.5527V6.08105H20.0801C20.6133 6.08105 21.0674 6.07227 21.4424 6.05469C21.8174 6.03711 22.1133 5.97852 22.3301 5.87891C22.6348 5.74414 22.834 5.57129 22.9277 5.36035C23.0215 5.14355 23.0684 4.89453 23.0684 4.61328ZM23.8945 9.93945C23.8945 9.52344 23.8125 9.2041 23.6484 8.98145C23.4902 8.75293 23.2178 8.58301 22.8311 8.47168C22.5674 8.39551 22.2041 8.35449 21.7412 8.34863C21.2783 8.34277 20.7949 8.33984 20.291 8.33984H19.5527V11.6006H19.7988C20.748 11.6006 21.4277 11.5977 21.8379 11.5918C22.248 11.5859 22.626 11.5098 22.9717 11.3633C23.3232 11.2168 23.5635 11.0234 23.6924 10.7832C23.8271 10.5371 23.8945 10.2559 23.8945 9.93945ZM38.9814 14H31.3174V11.6797H33.4619V3.2334H31.3174V0.913086H38.9814V3.2334H36.8369V11.6797H38.9814V14ZM53.9717 3.44434H49.8848V14H46.5098V3.44434H42.4229V0.913086H53.9717V3.44434ZM72.0693 14.2549C71.0967 14.2549 70.1973 14.1113 69.3711 13.8242C68.5508 13.5371 67.8447 13.1094 67.2529 12.541C66.6611 11.9727 66.2012 11.2637 65.873 10.4141C65.5508 9.56445 65.3896 8.58301 65.3896 7.46973C65.3896 6.43262 65.5449 5.49219 65.8555 4.64844C66.166 3.80469 66.6172 3.08105 67.209 2.47754C67.7773 1.89746 68.4805 1.44922 69.3184 1.13281C70.1621 0.816406 71.082 0.658203 72.0781 0.658203C72.6289 0.658203 73.124 0.69043 73.5635 0.754883C74.0088 0.813477 74.4189 0.892578 74.7939 0.992188C75.1865 1.10352 75.541 1.22949 75.8574 1.37012C76.1797 1.50488 76.4609 1.63086 76.7012 1.74805V4.9209H76.3145C76.1504 4.78027 75.9424 4.61328 75.6904 4.41992C75.4443 4.22656 75.1631 4.03613 74.8467 3.84863C74.5244 3.66113 74.1758 3.50293 73.8008 3.37402C73.4258 3.24512 73.0244 3.18066 72.5967 3.18066C72.1221 3.18066 71.6709 3.25684 71.2432 3.40918C70.8154 3.55566 70.4199 3.80176 70.0566 4.14746C69.7109 4.48145 69.4297 4.92383 69.2129 5.47461C69.002 6.02539 68.8965 6.69336 68.8965 7.47852C68.8965 8.29883 69.0107 8.98438 69.2393 9.53516C69.4736 10.0859 69.7666 10.5195 70.1182 10.8359C70.4756 11.1582 70.874 11.3896 71.3135 11.5303C71.7529 11.665 72.1865 11.7324 72.6143 11.7324C73.0244 11.7324 73.4287 11.6709 73.8271 11.5479C74.2314 11.4248 74.6035 11.2578 74.9434 11.0469C75.2305 10.877 75.4971 10.6953 75.7432 10.502C75.9893 10.3086 76.1914 10.1416 76.3496 10.001H76.7012V13.1299C76.373 13.2764 76.0596 13.4141 75.7607 13.543C75.4619 13.6719 75.1484 13.7832 74.8203 13.877C74.3926 14 73.9912 14.0938 73.6162 14.1582C73.2412 14.2227 72.7256 14.2549 72.0693 14.2549ZM92.377 9.99219C92.377 10.625 92.248 11.1904 91.9902 11.6885C91.7383 12.1865 91.3896 12.5996 90.9443 12.9277C90.4287 13.3145 89.8604 13.5898 89.2393 13.7539C88.624 13.918 87.8418 14 86.8926 14H81.1797V0.913086H86.2598C87.3145 0.913086 88.085 0.948242 88.5713 1.01855C89.0635 1.08887 89.5498 1.24414 90.0303 1.48438C90.5283 1.73633 90.8975 2.07617 91.1377 2.50391C91.3838 2.92578 91.5068 3.40918 91.5068 3.9541C91.5068 4.58691 91.3398 5.14648 91.0059 5.63281C90.6719 6.11328 90.2002 6.48828 89.5908 6.75781V6.82812C90.4463 6.99805 91.123 7.34961 91.6211 7.88281C92.125 8.41602 92.377 9.11914 92.377 9.99219ZM88.0527 4.61328C88.0527 4.39648 87.9971 4.17969 87.8857 3.96289C87.7803 3.74609 87.5898 3.58496 87.3145 3.47949C87.0684 3.38574 86.7607 3.33594 86.3916 3.33008C86.0283 3.31836 85.5156 3.3125 84.8535 3.3125H84.5371V6.08105H85.0645C85.5977 6.08105 86.0518 6.07227 86.4268 6.05469C86.8018 6.03711 87.0977 5.97852 87.3145 5.87891C87.6191 5.74414 87.8184 5.57129 87.9121 5.36035C88.0059 5.14355 88.0527 4.89453 88.0527 4.61328ZM88.8789 9.93945C88.8789 9.52344 88.7969 9.2041 88.6328 8.98145C88.4746 8.75293 88.2021 8.58301 87.8154 8.47168C87.5518 8.39551 87.1885 8.35449 86.7256 8.34863C86.2627 8.34277 85.7793 8.33984 85.2754 8.33984H84.5371V11.6006H84.7832C85.7324 11.6006 86.4121 11.5977 86.8223 11.5918C87.2324 11.5859 87.6104 11.5098 87.9561 11.3633C88.3076 11.2168 88.5479 11.0234 88.6768 10.7832C88.8115 10.5371 88.8789 10.2559 88.8789 9.93945ZM103.966 14H96.3018V11.6797H98.4463V3.2334H96.3018V0.913086H103.966V3.2334H101.821V11.6797H103.966V14ZM118.956 3.44434H114.869V14H111.494V3.44434H107.407V0.913086H118.956V3.44434ZM134.86 14H131.485V3.44434H127.741C127.712 4.01855 127.688 4.46973 127.671 4.79785C127.653 5.12598 127.627 5.55957 127.592 6.09863C127.516 7.28223 127.398 8.27832 127.24 9.08691C127.088 9.88965 126.915 10.5518 126.722 11.0732C126.522 11.6006 126.312 12.0312 126.089 12.3652C125.866 12.6992 125.644 12.9717 125.421 13.1826C125.134 13.458 124.776 13.6777 124.349 13.8418C123.921 14.0059 123.467 14.0879 122.986 14.0879C122.693 14.0879 122.389 14.0762 122.072 14.0527C121.762 14.0293 121.562 14.0117 121.475 14V11.0732H121.598C121.65 11.0791 121.709 11.085 121.773 11.0908C121.844 11.0967 121.923 11.0996 122.011 11.0996C122.339 11.0996 122.582 11.0791 122.74 11.0381C122.898 10.9971 123.039 10.9238 123.162 10.8184C123.607 10.4258 123.912 9.80469 124.076 8.95508C124.246 8.09961 124.372 6.9043 124.454 5.36914C124.489 4.75977 124.516 4.09766 124.533 3.38281C124.557 2.66211 124.577 1.83887 124.595 0.913086H134.86V14ZM152.303 14H148.813L147.908 11.3545H143.057L142.151 14H138.75L143.584 0.913086H147.469L152.303 14ZM147.091 8.95508L145.482 4.26172L143.874 8.95508H147.091Z" fill="#2DABE3"/>
</svg>
